<?xml version="1.0" encoding="UTF-8" standalone="no"?>
<!DOCTYPE svg PUBLIC "-//W3C//DTD SVG 1.1//EN" "http://www.w3.org/Graphics/SVG/1.1/DTD/svg11.dtd">
<svg width="100%" height="100%" viewBox="0 0 2732 2048" version="1.1" xmlns="http://www.w3.org/2000/svg" xmlns:xlink="http://www.w3.org/1999/xlink" xml:space="preserve" xmlns:serif="http://www.serif.com/" style="fill-rule:evenodd;clip-rule:evenodd;stroke-linejoin:round;stroke-miterlimit:2;">
    <g transform="matrix(11.453,0,0,11.453,-27292.8,-21187.4)">
        <path d="M2489.32,1939.54C2491.74,1926.2 2494.28,1912.1 2496.51,1899.51C2500.47,1877.13 2503.37,1859.53 2503.37,1859.53C2503.52,1858.63 2504.23,1857.93 2505.14,1857.81C2505.14,1857.81 2509.64,1857.11 2516.42,1856.57C2523.62,1856.01 2533.33,1855.56 2543.06,1856.88C2548.68,1857.65 2554.28,1858.98 2559.37,1861.13C2571.63,1866.31 2580.87,1875.93 2581.89,1891.81C2582.83,1907.73 2577.31,1919.81 2565.32,1928.68C2553.49,1937.42 2534.91,1942.92 2509.44,1945.61C2504.68,1946 2499.74,1946.41 2494.76,1946.81C2491.14,1972.56 2488.19,1994.04 2488.19,1994.04C2487.81,1996.41 2485.56,1998.04 2483.18,1997.65C2480.81,1997.27 2479.19,1995.02 2479.57,1992.65C2479.57,1992.65 2483.36,1972.22 2487.89,1947.37C2483.14,1947.75 2478.39,1948.11 2473.73,1948.46C2445.19,1950.56 2420.11,1952.07 2420.11,1952.07C2419.37,1952.14 2418.7,1951.6 2418.63,1950.86C2418.55,1950.12 2419.09,1949.46 2419.83,1949.38C2419.83,1949.38 2450.09,1944.98 2481.89,1940.56C2484.36,1940.22 2486.84,1939.88 2489.32,1939.54ZM2495.91,1938.65C2500.18,1938.08 2504.39,1937.52 2508.49,1936.96C2531.87,1934.26 2548.97,1929.34 2559.81,1921.26C2569.18,1914.28 2573.45,1904.82 2572.74,1892.34C2572.11,1880.34 2564.87,1873.43 2555.79,1869.13C2551.38,1867.04 2546.58,1865.46 2541.7,1864.34C2532.62,1862.27 2523.45,1861.48 2516.6,1861.44C2512.36,1861.41 2509.03,1861.62 2507.22,1861.77C2506.47,1866.58 2504.11,1881.79 2501.41,1900.3C2499.65,1912.35 2497.73,1925.8 2495.91,1938.65Z" style="fill:rgb(163,20,20);"/>
    </g>
    <g transform="matrix(11.453,0,0,11.453,-27292.8,-21187.4)">
        <path d="M2454.35,2013.21L2538.74,2005.6C2539.31,2005.54 2539.82,2005.95 2539.88,2006.52C2539.94,2007.09 2539.53,2007.6 2538.96,2007.66L2451.71,2018.23C2450.97,2018.31 2450.24,2018.04 2449.73,2017.5C2449.22,2016.96 2448.99,2016.21 2449.11,2015.48L2467.74,1887.38C2468.13,1885 2470.37,1883.38 2472.75,1883.76C2475.13,1884.14 2476.75,1886.39 2476.37,1888.77L2454.35,2013.21Z" style="fill:rgb(163,20,20);"/>
    </g>
</svg>
